<svg height="512pt" viewBox="0 0 512 512" width="512pt" xmlns="http://www.w3.org/2000/svg" xmlns:xlink="http://www.w3.org/1999/xlink"><linearGradient id="a" gradientUnits="userSpaceOnUse" x1="0" x2="512" y1="256" y2="256"><stop offset="0" stop-color="#80d8ff"/><stop offset="1" stop-color="#ea80fc"/></linearGradient><path d="m256 0c-141.484375 0-256 114.496094-256 256 0 141.484375 114.496094 256 256 256 141.484375 0 256-114.496094 256-256 0-141.484375-114.496094-256-256-256zm126.40625 80.960938c-73.632812 58.925781-179.175781 58.925781-252.8125 0 35.5625-25.753907 79.238281-40.960938 126.40625-40.960938s90.84375 15.207031 126.40625 40.960938zm-252.8125 350.078124c73.632812-58.925781 179.175781-58.925781 252.8125 0-35.5625 25.753907-79.238281 40.960938-126.40625 40.960938s-90.84375-15.207031-126.40625-40.960938zm283.289062-26.726562c-43.773437-37.257812-98.765624-57.574219-156.882812-57.574219s-113.109375 20.320313-156.882812 57.574219c-36.625-38.71875-59.117188-90.933594-59.117188-148.3125s22.492188-109.59375 59.117188-148.3125c43.773437 37.257812 98.765624 57.574219 156.882812 57.574219s113.109375-20.320313 156.882812-57.574219c36.625 38.71875 59.117188 90.933594 59.117188 148.3125s-22.492188 109.59375-59.117188 148.3125zm0 0" fill="url(#a)"/></svg>