<?xml version="1.0"?>
<svg xmlns="http://www.w3.org/2000/svg" height="512px" viewBox="0 -8 512 511" width="512px"><path d="m69.9375 80.425781c0-11.035156 8.945312-19.980469 19.980469-19.980469 11.035156 0 19.980469 8.945313 19.980469 19.980469 0 11.039063-8.945313 19.984375-19.980469 19.984375-11.035157 0-19.980469-8.945312-19.980469-19.984375zm89.917969 19.984375c11.035156 0 19.980469-8.945312 19.980469-19.984375 0-11.035156-8.945313-19.980469-19.980469-19.980469-11.035157 0-19.984375 8.945313-19.984375 19.980469 0 11.039063 8.949218 19.984375 19.984375 19.984375zm352.144531 309.640625-84.910156 85.105469-138.027344-134.242188c-7.722656-7.726562-13.621094-17.292968-17.050781-27.664062l-.3125-.945312-21.359375-95.402344 95.148437 21.636718.914063.304688c10.320312 3.417969 19.84375 9.28125 27.550781 16.957031zm-56.878906.429688-109.328125-106.324219c-.761719-.761719-1.566407-1.484375-2.410157-2.160156l-28.242187 28.222656c.660156.824219 1.359375 1.609375 2.101563 2.359375l109.425781 106.417969zm-144.402344 29.621093 41.089844 39.960938h-291.863282c-33.054687 0-59.945312-26.890625-59.945312-59.945312v-359.671876c0-33.054687 26.890625-59.945312 59.945312-59.945312h391.644532c33.054687 0 59.945312 26.890625 59.945312 59.945312v291.410157l-39.964844-38.863281v-152.636719h-431.605468v259.761719c0 11.019531 8.960937 19.984374 19.980468 19.984374zm-270.753906-379.65625v59.945313h431.605468v-59.945313c0-11.019531-8.964843-19.980468-19.980468-19.980468h-391.644532c-11.019531 0-19.980468 8.960937-19.980468 19.980468zm0 0" fill="#FFFFFF"/></svg>
