<?xml version="1.0" encoding="iso-8859-1"?>
<!-- Generator: Adobe Illustrator 19.1.0, SVG Export Plug-In . SVG Version: 6.00 Build 0)  -->
<svg xmlns="http://www.w3.org/2000/svg" xmlns:xlink="http://www.w3.org/1999/xlink" version="1.1" id="Capa_1" x="0px" y="0px" viewBox="0 0 475.2 475.2" style="enable-background:new 0 0 475.2 475.2;" xml:space="preserve" width="512px" height="512px">
<g>
	<g>
		<path d="M342.3,132.9c-5.3-5.3-13.8-5.3-19.1,0l-85.6,85.6L152,132.9c-5.3-5.3-13.8-5.3-19.1,0c-5.3,5.3-5.3,13.8,0,19.1    l85.6,85.6l-85.6,85.6c-5.3,5.3-5.3,13.8,0,19.1c2.6,2.6,6.1,4,9.5,4s6.9-1.3,9.5-4l85.6-85.6l85.6,85.6c2.6,2.6,6.1,4,9.5,4    c3.5,0,6.9-1.3,9.5-4c5.3-5.3,5.3-13.8,0-19.1l-85.4-85.6l85.6-85.6C347.6,146.7,347.6,138.2,342.3,132.9z" fill="gray"/>
	</g>
</g>
<g>
</g>
<g>
</g>
<g>
</g>
<g>
</g>
<g>
</g>
<g>
</g>
<g>
</g>
<g>
</g>
<g>
</g>
<g>
</g>
<g>
</g>
<g>
</g>
<g>
</g>
<g>
</g>
<g>
</g>
</svg>
